<svg xmlns="http://www.w3.org/2000/svg" viewBox="0 0 800 480">
  <defs>
    <linearGradient id="bgFile" x1="0%" y1="0%" x2="100%" y2="100%">
      <stop offset="0%" stop-color="#2b2b2d"/>
      <stop offset="100%" stop-color="#19191a"/>
    </linearGradient>
  </defs>
  <rect width="800" height="480" fill="url(#bgFile)"/>
  <g opacity="0.05" stroke="#ffffff" stroke-width="1">
    <line x1="0" y1="120" x2="800" y2="120"/>
    <line x1="0" y1="240" x2="800" y2="240"/>
    <line x1="0" y1="360" x2="800" y2="360"/>
    <line x1="160" y1="0" x2="160" y2="480"/>
    <line x1="400" y1="0" x2="400" y2="480"/>
    <line x1="640" y1="0" x2="640" y2="480"/>
  </g>

  <!-- stack of file cards -->
  <g>
    <rect x="330" y="118" width="150" height="188" rx="10" fill="#333335" transform="rotate(-8 405 212)"/>
    <rect x="322" y="128" width="150" height="188" rx="10" fill="#3a3a3d" transform="rotate(4 397 222)"/>
    <rect x="325" y="140" width="150" height="200" rx="10" fill="#414144"/>
    <rect x="345" y="164" width="110" height="10" rx="5" fill="#ffdb70"/>
    <rect x="345" y="188" width="90" height="7" rx="3.5" fill="#8a8a8d"/>
    <rect x="345" y="204" width="100" height="7" rx="3.5" fill="#8a8a8d"/>
    <rect x="345" y="220" width="75" height="7" rx="3.5" fill="#6f6f72"/>
    <path d="M345 260 h110" stroke="#5a5a5d" stroke-width="2" stroke-dasharray="4 5"/>
  </g>

  <!-- rename / refresh glyph -->
  <g transform="translate(452,300)">
    <circle cx="0" cy="0" r="34" fill="#2a2a2c"/>
    <path d="M-14 -2 A14 14 0 1 1 -12 8" fill="none" stroke="#ffdb70" stroke-width="4" stroke-linecap="round"/>
    <path d="M-19 -10 L-14 -2 L-6 -6" fill="none" stroke="#ffdb70" stroke-width="4" stroke-linecap="round" stroke-linejoin="round"/>
  </g>

  <text x="400" y="440" text-anchor="middle" font-family="Poppins, Helvetica, Arial, sans-serif" font-size="18" fill="#ffffff" opacity="0.55" letter-spacing="1">PYTHON SCRIPT</text>
</svg>
